<?xml version="1.0" standalone="no"?>
<!DOCTYPE svg PUBLIC "-//W3C//DTD SVG 20010904//EN"
 "http://www.w3.org/TR/2001/REC-SVG-20010904/DTD/svg10.dtd">
<svg version="1.0" xmlns="http://www.w3.org/2000/svg"
 width="525.000000pt" height="160.000000pt" viewBox="0 0 525.000000 160.000000"
 preserveAspectRatio="xMidYMid meet">

<g transform="translate(0.000000,160.000000) scale(0.100000,-0.100000)"
fill="#4E4B66" stroke="none">
<path d="M3482 1490 c-128 -78 -73 -270 78 -270 25 0 51 4 59 9 10 6 75 -35
230 -146 119 -85 223 -161 231 -169 12 -12 11 -17 -12 -41 -99 -106 -114 -299
-33 -424 l23 -36 -71 -70 c-62 -60 -77 -70 -108 -71 -47 0 -76 -16 -99 -55
-24 -38 -25 -68 -5 -107 21 -42 53 -60 103 -60 37 0 50 6 78 34 27 27 34 42
34 73 0 35 7 46 74 112 l73 73 54 -29 c50 -26 63 -28 164 -28 101 0 115 2 170
29 73 36 135 99 172 174 24 49 27 69 28 147 0 77 -4 98 -27 147 -48 102 -138
179 -245 207 l-43 12 0 89 c0 80 2 90 21 100 29 16 59 70 59 108 0 75 -56 132
-130 132 -126 0 -185 -141 -94 -226 33 -32 34 -34 34 -117 l0 -84 -61 -20 -60
-20 -237 180 -237 179 -1 42 c-1 116 -124 186 -222 126z m918 -661 c57 -13
105 -50 131 -100 22 -44 27 -118 10 -160 -12 -33 -66 -96 -95 -111 -123 -66
-286 34 -286 174 1 82 70 179 138 194 15 3 32 7 37 9 16 5 17 5 65 -6z"/>
<path d="M70 755 l0 -485 90 0 90 0 0 200 0 200 190 0 190 0 0 -200 0 -200 85
0 85 0 0 485 0 485 -85 0 -85 0 0 -200 0 -200 -190 0 -190 0 0 200 0 200 -90
0 -90 0 0 -485z"/>
<path d="M1640 931 c0 -169 5 -332 10 -361 25 -132 109 -239 218 -280 81 -31
203 -25 284 14 75 36 143 103 176 174 24 50 27 69 27 157 0 81 -4 109 -22 147
-29 62 -106 144 -164 174 -100 50 -225 48 -311 -5 l-48 -30 0 159 0 160 -85 0
-85 0 0 -309z m472 -127 c51 -36 80 -91 86 -160 8 -102 -66 -205 -159 -220
-92 -15 -195 58 -219 154 -43 181 147 328 292 226z"/>
<path d="M2720 1234 c-113 -22 -204 -88 -237 -172 -23 -61 -23 -154 0 -214 24
-62 80 -109 176 -148 145 -59 174 -75 193 -105 22 -37 23 -57 3 -95 -19 -37
-63 -60 -114 -60 -55 0 -90 15 -134 58 l-37 36 -63 -62 -62 -63 47 -43 c69
-64 128 -88 224 -94 203 -11 334 96 334 274 0 161 -59 232 -246 294 -52 18
-109 44 -125 58 -28 23 -31 30 -26 69 12 108 120 129 239 47 l40 -28 35 39
c18 22 43 52 54 67 l19 26 -44 37 c-72 59 -195 94 -276 79z"/>
<path d="M4913 1131 l-83 -36 0 -319 c0 -360 3 -379 65 -441 47 -48 98 -65
188 -65 l65 0 19 72 20 73 -65 7 c-51 5 -71 12 -91 33 -26 25 -26 26 -26 198
l0 172 78 3 77 3 0 69 0 70 -80 0 -79 0 -3 98 -3 98 -82 -35z"/>
<path d="M912 743 l3 -258 29 -53 c34 -60 77 -102 139 -134 58 -30 177 -36
245 -14 68 23 144 92 179 164 l28 57 3 248 4 247 -86 0 -86 0 0 -225 c0 -247
-3 -260 -59 -308 -70 -59 -175 -34 -218 53 -22 42 -23 56 -23 262 l0 218 -81
0 -80 0 3 -257z"/>
<path d="M3365 972 c-72 -35 -137 -102 -173 -180 l-27 -57 -3 -352 -3 -353 85
0 86 0 0 161 0 160 28 -21 c46 -37 94 -51 168 -51 100 0 174 30 242 97 78 78
106 146 106 259 1 79 -3 98 -28 152 -33 73 -98 138 -177 179 -45 23 -69 28
-149 31 -88 4 -99 2 -155 -25z m228 -135 c50 -22 102 -87 117 -146 30 -126
-63 -261 -180 -261 -102 0 -199 101 -200 208 0 140 143 249 263 199z"/>
</g>
</svg>
