<?xml version="1.0" standalone="no"?>
<!DOCTYPE svg PUBLIC "-//W3C//DTD SVG 20010904//EN"
 "http://www.w3.org/TR/2001/REC-SVG-20010904/DTD/svg10.dtd">
<svg version="1.0" xmlns="http://www.w3.org/2000/svg"
 width="1024.000000pt" height="1024.000000pt" viewBox="0 0 1024.000000 1024.000000"
 preserveAspectRatio="xMidYMid meet">
<metadata>
Created by potrace 1.16, written by Peter Selinger 2001-2019
</metadata>
<g transform="translate(0.000000,1024.000000) scale(0.100000,-0.100000)"
fill="#000000" stroke="none">
<path d="M4890 9024 c-19 -2 -55 -9 -80 -15 -201 -49 -332 -151 -446 -346 -70
-121 -94 -148 -164 -181 -67 -31 -64 -31 -925 -36 -570 -3 -604 -4 -688 -24
-383 -92 -677 -366 -782 -728 -35 -121 -50 -297 -39 -451 5 -69 7 -1001 4
-2170 l-5 -2048 -115 0 c-103 0 -121 -3 -170 -26 -77 -36 -126 -82 -160 -149
-16 -31 -63 -148 -105 -261 -42 -112 -102 -266 -132 -342 -30 -76 -58 -162
-63 -190 -25 -159 75 -323 237 -388 l58 -24 940 -5 940 -5 47 -28 c86 -50 113
-104 121 -247 8 -126 35 -191 112 -267 52 -52 73 -65 131 -83 l69 -21 1370 1
c939 0 1383 4 1410 11 99 27 181 97 227 195 24 51 30 81 37 175 5 73 13 125
24 145 20 39 69 81 122 105 38 17 89 19 875 19 701 0 845 3 898 15 243 58 392
284 380 582 -4 95 -9 123 -47 233 -101 290 -151 384 -243 459 -98 80 -147 95
-315 95 -81 1 -146 5 -152 11 -12 13 -91 157 -91 168 0 4 16 7 35 7 19 0 35 3
35 8 0 4 -21 36 -46 72 l-45 65 35 3 c20 2 36 5 36 8 0 9 -163 204 -171 204
-11 0 -78 -78 -127 -149 -42 -60 -42 -64 1 -64 9 0 17 -2 17 -4 0 -3 -18 -30
-40 -62 -22 -31 -40 -62 -40 -69 0 -7 13 -12 30 -12 l30 0 -31 -62 c-49 -98
-74 -127 -106 -123 -16 2 -50 4 -76 4 -40 1 -49 5 -56 24 -5 14 -4 25 3 29 7
5 4 8 -7 8 -13 0 -17 -5 -13 -17 3 -10 1 -25 -4 -33 -7 -11 -10 -5 -10 23 0
30 4 39 24 47 18 7 22 14 19 34 -5 24 -14 31 -35 27 -5 0 -8 13 -8 30 0 16 4
28 9 24 5 -3 13 0 16 6 4 5 13 8 21 5 17 -7 17 -4 3 28 -7 14 -19 27 -28 29
-10 2 -5 5 11 9 15 3 25 2 23 -3 -3 -4 -1 -10 4 -13 5 -3 12 2 15 11 8 19 -10
34 -31 26 -7 -3 -13 0 -13 6 0 6 7 11 16 11 14 0 15 2 3 17 -13 15 -12 16 9
11 12 -4 22 -2 22 4 0 7 -16 8 -42 5 -24 -3 -35 -3 -25 0 10 3 16 11 13 18 -2
7 2 16 11 19 9 4 13 13 9 21 -3 9 1 18 9 21 8 4 15 11 15 18 0 6 11 20 25 30
30 23 33 40 5 33 -13 -3 -20 0 -20 9 0 8 6 11 15 8 9 -4 15 0 15 9 0 10 7 13
24 10 21 -4 23 -2 19 21 -4 18 -1 26 9 26 26 0 182 85 244 132 142 109 242
237 301 386 57 141 67 200 67 377 1 137 -3 171 -22 239 -72 252 -216 436 -457
586 -38 24 -75 50 -81 58 -6 9 -18 13 -28 9 -9 -4 -16 -2 -16 3 0 6 7 10 15
10 8 0 15 5 15 10 0 6 -10 10 -22 10 l-22 0 22 21 c24 22 21 42 -5 32 -11 -4
-14 -2 -11 8 2 7 15 16 29 20 20 6 21 7 4 8 -14 1 -16 4 -7 9 7 5 10 16 7 25
-4 10 1 19 14 26 29 16 49 13 54 -6 3 -10 4 -6 4 8 -1 20 -5 25 -19 21 -10 -2
-18 1 -18 7 0 6 5 11 12 11 6 0 9 2 6 5 -11 12 -37 -7 -31 -23 5 -11 2 -14
-10 -9 -8 3 -17 1 -20 -6 -2 -6 -6 -3 -10 7 -4 9 -3 15 2 11 15 -9 23 13 12
32 -6 11 -11 13 -11 5 0 -7 -5 -10 -11 -6 -6 3 -15 0 -20 -7 -4 -7 -11 -10
-16 -5 -8 8 21 28 46 33 52 8 61 14 60 41 0 25 -1 26 -9 6 -8 -21 -28 -40 -34
-33 -2 2 -6 15 -10 29 -3 14 -3 19 0 13 7 -15 34 -18 34 -4 0 5 -6 11 -12 14
-19 6 -3 19 26 21 14 0 26 5 26 9 0 5 -14 6 -31 3 -20 -3 -29 -1 -26 7 2 7 10
12 18 13 22 1 49 15 49 25 0 4 -7 6 -15 3 -8 -4 -15 -1 -15 5 0 6 5 11 11 11
12 0 38 29 39 43 0 4 -4 7 -10 7 -5 0 -10 -6 -10 -13 0 -7 -10 -18 -21 -26
-18 -11 -23 -11 -30 1 -6 9 -9 9 -9 1 0 -13 -60 16 -60 30 0 4 11 0 25 -9 19
-12 28 -14 38 -5 8 6 17 8 20 5 4 -4 11 5 16 20 11 29 21 32 39 14 6 -6 15 -8
19 -4 5 4 1 13 -8 19 -9 7 -20 23 -24 36 -6 20 -4 23 9 18 9 -4 16 -2 16 2 0
5 -7 12 -16 15 -22 9 -24 8 -24 -9 0 -8 -3 -15 -6 -15 -3 0 -12 7 -20 15 -14
13 -14 15 0 15 9 0 16 4 16 10 0 5 7 7 17 3 13 -5 15 -2 10 16 -4 18 -2 21 14
16 22 -7 26 13 4 21 -8 4 -15 10 -15 15 0 6 7 6 18 0 10 -5 24 -6 31 -2 10 6
9 10 -3 14 -9 4 -16 14 -16 23 0 13 -3 14 -15 4 -8 -7 -16 -10 -16 -6 -1 3 -2
9 -3 14 -1 4 -5 14 -10 22 -7 10 -3 10 11 -3 11 -9 23 -14 27 -10 4 4 9 -3 13
-15 5 -22 43 -32 43 -12 0 5 -8 6 -17 3 -12 -5 -15 -2 -10 10 3 9 2 17 -3 17
-6 0 -10 5 -10 11 0 6 7 9 15 5 12 -4 13 -2 6 13 -6 10 -8 21 -5 23 2 3 5 21
6 41 1 20 5 34 10 31 5 -3 6 -14 3 -24 -3 -10 -1 -21 5 -25 13 -8 13 30 1 54
-6 11 -6 22 1 32 8 11 9 11 4 -3 -3 -10 0 -20 5 -24 7 -4 10 5 8 22 -1 16 12
60 29 98 126 273 146 570 56 831 l-34 100 43 45 c152 158 216 300 224 495 4
89 1 126 -16 197 -35 150 -117 283 -228 373 -80 65 -125 90 -233 125 -160 54
-334 43 -495 -31 -180 -81 -326 -267 -372 -471 l-18 -78 -727 0 -728 0 40 78
c62 119 84 222 77 357 -8 159 -38 246 -125 360 -91 121 -241 219 -372 244 -68
13 -183 20 -230 15z m254 -262 c114 -53 198 -150 231 -266 25 -87 17 -223 -16
-296 -38 -81 -108 -153 -187 -192 l-67 -33 -735 -3 -735 -2 -24 36 c-14 20
-65 74 -115 120 l-90 84 365 0 c407 0 429 3 551 67 88 46 169 133 228 243 102
192 252 285 447 276 65 -3 96 -10 147 -34z m2679 -450 c192 -95 301 -296 268
-496 -15 -88 -67 -199 -118 -248 l-38 -37 -53 65 c-143 173 -361 299 -624 360
-75 17 -77 18 -72 43 24 105 115 225 219 286 92 53 141 66 251 63 90 -3 107
-7 167 -36z m-4798 -136 c213 -68 403 -240 504 -458 61 -128 75 -193 75 -343
1 -116 -2 -140 -28 -220 -36 -115 -60 -162 -133 -260 -66 -88 -114 -131 -217
-193 -144 -87 -275 -117 -470 -109 -142 6 -223 25 -329 79 -298 150 -475 480
-437 814 17 150 57 256 145 379 123 171 331 304 524 335 101 16 277 5 366 -24z
m4250 -458 c136 -38 235 -91 342 -186 47 -40 66 -65 75 -96 6 -22 19 -50 27
-60 10 -12 11 -16 3 -12 -14 8 -11 -22 10 -109 5 -22 9 -51 9 -65 -1 -20 1
-22 9 -10 5 8 10 13 11 10 5 -28 4 -48 -3 -44 -4 3 -8 -2 -8 -11 0 -9 4 -13
10 -10 6 3 7 -1 4 -9 -4 -9 -1 -16 6 -16 10 0 10 -3 0 -15 -10 -12 -10 -15 4
-15 9 0 16 -7 16 -15 0 -18 -16 -20 -23 -2 -4 9 -6 9 -6 0 -1 -6 3 -14 9 -18
5 -3 7 -12 3 -20 -4 -11 -1 -13 11 -9 9 3 16 1 16 -5 0 -6 -6 -11 -13 -11 -8
0 -14 -6 -14 -14 0 -9 6 -12 16 -8 14 5 14 4 2 -12 -10 -12 -11 -20 -4 -24 11
-8 11 -41 -1 -60 -4 -6 -4 -17 -1 -22 4 -6 1 -9 -5 -8 -7 2 -14 -10 -15 -25
-3 -23 -1 -27 13 -22 13 5 13 3 -2 -14 -11 -12 -16 -29 -13 -41 3 -11 1 -18
-3 -15 -5 3 -11 1 -15 -5 -3 -5 -1 -10 4 -10 6 0 11 -5 11 -11 0 -5 -4 -8 -9
-5 -10 7 -33 -49 -24 -58 4 -3 2 -6 -4 -6 -6 0 -13 -10 -17 -23 -3 -13 -17
-40 -31 -61 -22 -32 -24 -41 -13 -55 12 -14 11 -15 -4 -2 -14 11 -18 11 -18 1
0 -15 -86 -102 -116 -118 -13 -7 -167 -9 -444 -6 -444 5 -1000 6 -1016 3 -5
-1 -13 -1 -19 0 -5 1 -67 2 -137 1 -89 -1 -128 2 -128 10 0 6 -8 10 -17 8 -10
-2 -25 3 -33 12 -8 9 -22 19 -30 23 -11 4 -10 6 4 6 10 1 25 -7 32 -16 13 -17
13 -17 14 2 l1 20 16 -20 c12 -16 14 -16 10 -3 -3 10 -2 20 3 23 6 4 10 -3 10
-14 0 -11 5 -23 12 -27 6 -4 8 -3 5 3 -4 6 0 19 8 29 14 18 14 18 9 -1 -2 -11
0 -27 6 -35 9 -13 11 -13 19 0 5 8 7 18 5 22 -3 5 -2 18 2 30 l6 21 13 -22
c10 -20 13 -21 18 -7 4 10 3 15 -2 12 -5 -3 -12 2 -15 11 -4 9 -1 20 6 24 7 4
9 12 4 16 -5 4 -11 2 -13 -4 -3 -7 -11 -13 -19 -13 -8 0 -11 -6 -7 -17 5 -14
3 -15 -6 -7 -10 9 -10 16 1 33 12 20 32 25 86 23 12 -1 22 4 22 10 0 7 5 7 14
-1 16 -13 37 -11 48 4 5 6 8 4 8 -5 0 -13 1 -13 10 0 9 13 11 13 19 1 8 -12
12 -12 25 -2 11 9 16 10 16 2 0 -14 37 -15 45 -1 5 8 11 7 21 -1 11 -9 14 -9
14 1 0 8 11 11 33 7 17 -2 40 -1 49 4 9 5 19 5 22 0 3 -4 17 -6 32 -3 16 3 29
-1 35 -9 7 -11 9 -11 9 3 0 16 27 17 333 18 359 1 387 4 493 56 75 38 172 134
206 204 80 169 55 344 -66 466 -91 91 -206 120 -294 75 -98 -50 -75 -180 34
-197 110 -16 165 -131 115 -239 -26 -55 -55 -84 -115 -110 l-51 -23 -1545 -6
c-850 -3 -1551 -6 -1558 -7 -8 -2 -10 -10 -6 -23 5 -17 4 -19 -6 -9 -14 13
-17 97 -5 126 15 35 -4 28 -33 -12 -27 -37 -30 -39 -35 -20 -3 12 -2 31 3 42
8 20 9 19 10 -8 l2 -30 14 33 c8 18 21 35 29 38 19 8 19 24 0 24 -8 0 -15 7
-15 16 0 11 -5 14 -17 9 -14 -5 -15 -4 -6 6 9 9 18 8 38 -5 27 -18 42 -16 30
3 -3 6 -12 11 -20 11 -9 0 -6 9 10 26 14 15 25 33 25 40 0 8 7 11 18 7 13 -5
14 -3 5 7 -6 7 -9 19 -6 26 3 8 0 14 -6 14 -6 0 -11 -9 -11 -20 0 -21 -24 -28
-35 -10 -3 6 1 10 9 10 16 0 41 73 31 90 -3 6 -1 10 4 10 6 0 11 10 11 23 0
12 5 29 10 37 8 13 10 12 10 -2 0 -10 4 -18 9 -18 4 0 6 11 4 25 -5 24 -21 29
-35 10 -5 -6 -8 -2 -8 7 0 10 9 23 20 30 11 7 20 16 20 20 0 12 -24 4 -37 -12
-11 -13 -12 -13 -12 0 0 19 17 59 18 44 1 -13 31 -15 31 -2 0 5 -7 16 -15 24
-17 17 -20 34 -6 34 16 0 41 30 40 48 0 12 -3 11 -9 -5 -11 -28 -30 -30 -37
-3 -3 11 -9 17 -14 15 -9 -6 -3 34 6 43 3 4 8 -4 12 -16 9 -37 19 -25 15 19
-3 29 -1 40 7 35 7 -5 9 -1 5 9 -5 13 -9 12 -24 -5 -10 -12 -21 -17 -24 -12
-3 6 1 12 9 16 8 3 15 15 15 26 0 12 5 18 10 15 6 -3 10 0 10 9 0 8 6 17 13
19 7 3 5 6 -5 6 -10 1 -18 -5 -18 -11 0 -9 -3 -8 -10 2 -5 9 -6 18 0 24 5 5 5
17 -1 29 -8 13 -8 17 -1 13 6 -3 13 -2 17 4 3 5 0 10 -7 10 -8 0 -6 5 5 11 9
5 17 18 17 28 0 10 3 21 7 25 4 3 732 5 1617 3 1463 -2 1616 -4 1671 -19z
m-5235 -1026 c0 -7 14 -25 30 -39 17 -13 30 -31 30 -39 0 -8 9 -14 20 -14 11
0 20 -3 21 -7 3 -33 11 -69 18 -82 4 -9 7 -61 5 -116 -2 -55 -1 -121 2 -148
l6 -47 953 2 953 3 -39 -45 c-22 -25 -58 -71 -82 -102 l-42 -57 -952 -1 -953
0 0 378 c1 332 2 374 15 352 8 -14 14 -31 15 -38z m3120 -232 c126 -19 250
-59 370 -121 356 -182 565 -464 640 -860 58 -308 -12 -615 -198 -865 -83 -112
-82 -112 -122 -63 -22 28 -30 46 -24 54 5 7 30 41 56 76 86 119 150 270 177
423 15 84 14 281 -3 368 -31 161 -108 337 -199 455 -59 76 -194 205 -260 247
-215 137 -495 201 -727 166 -104 -16 -111 -18 -207 -49 -218 -71 -387 -195
-515 -376 -148 -209 -208 -396 -208 -638 1 -235 67 -433 205 -614 l54 -71 -38
-42 -39 -43 -38 43 c-189 208 -295 540 -264 829 32 309 146 539 380 770 207
203 475 313 780 320 58 1 139 -3 180 -9z m15 -244 c151 -28 287 -89 406 -184
170 -135 281 -300 339 -503 28 -97 38 -289 20 -396 -23 -144 -89 -294 -177
-401 l-36 -44 -33 37 c-19 20 -34 39 -34 43 0 4 18 34 40 67 91 136 134 284
132 455 -2 189 -57 351 -170 501 -157 206 -435 331 -707 315 -125 -7 -223 -34
-340 -94 -72 -37 -108 -64 -181 -137 -129 -129 -206 -268 -240 -432 -24 -116
-15 -302 21 -408 28 -86 71 -168 116 -226 16 -20 29 -39 29 -41 0 -3 -18 -24
-39 -47 l-39 -43 -46 59 c-91 116 -143 243 -172 422 -40 250 43 526 226 747
204 246 555 369 885 310z m2425 -9 c0 -2 -28 -24 -62 -49 -83 -60 -173 -105
-267 -131 -73 -20 -100 -21 -631 -25 l-555 -3 -17 28 c-9 15 -44 61 -77 100
l-61 73 797 3 c439 1 815 3 836 5 20 1 37 1 37 -1z m-2456 -357 c202 -51 347
-187 417 -390 26 -78 31 -225 10 -310 -16 -63 -63 -174 -79 -184 -6 -3 -59 47
-118 111 -228 249 -357 383 -369 383 -14 0 -63 -51 -304 -318 l-175 -192 -27
47 c-51 89 -71 168 -72 278 -2 173 48 290 176 420 61 61 99 90 151 114 137 64
252 76 390 41z m2236 -1435 l0 -1395 -53 0 -53 0 -159 173 c-420 455 -480 520
-640 687 -129 135 -349 369 -425 455 -30 33 -60 66 -67 73 -11 12 -5 23 35 70
27 32 63 78 82 104 18 26 37 45 43 41 6 -3 7 -1 3 5 -3 6 9 41 28 79 19 37 41
86 51 108 22 53 76 266 70 276 -3 4 -1 10 4 14 6 3 9 73 7 178 -4 176 -18 267
-65 412 l-19 60 467 6 c381 5 481 9 545 23 44 9 82 19 85 21 2 3 17 5 33 5
l28 0 0 -1395z m-3602 1341 c1 -2 -8 -39 -22 -82 -40 -130 -48 -182 -53 -344
-4 -129 -2 -176 16 -279 35 -205 126 -399 259 -556 l60 -69 -82 -92 c-116
-131 -583 -645 -731 -804 -99 -106 -143 -154 -305 -333 l-143 -158 -49 76
c-26 41 -48 78 -48 80 0 3 23 5 50 5 l50 0 -55 74 c-30 41 -55 77 -55 80 0 3
25 6 56 8 l56 3 -92 110 c-50 61 -105 125 -122 143 -30 32 -31 32 -50 15 -11
-10 -65 -74 -121 -143 l-101 -125 56 -3 56 -3 -49 -73 c-27 -41 -49 -78 -49
-83 0 -5 18 -7 41 -5 39 4 41 3 34 -19 -4 -12 -27 -53 -51 -91 l-44 -68 -140
0 -140 0 0 1373 0 1372 882 -3 c486 -2 884 -5 886 -6z m1232 -906 l0 -376 -31
-29 c-17 -17 -76 -81 -132 -143 l-100 -113 -41 48 c-23 26 -57 65 -76 86 l-35
37 -25 -22 c-14 -13 -66 -68 -114 -123 -49 -55 -95 -107 -103 -115 -13 -13
-14 -3 -8 75 21 269 135 499 399 800 144 165 251 273 258 262 4 -7 7 -181 8
-387z m2751 315 c179 -91 322 -258 381 -445 20 -64 23 -95 22 -215 0 -125 -3
-148 -28 -220 -67 -196 -198 -344 -384 -433 -40 -19 -76 -32 -79 -28 -7 6 -13
29 -15 53 -1 7 -5 10 -10 7 -4 -3 -3 -14 2 -25 9 -15 7 -19 -7 -20 -16 0 -15
-1 2 -9 19 -7 19 -8 2 -15 -25 -10 -34 2 -19 25 7 12 8 20 2 20 -12 0 -9 22 5
32 6 5 5 8 -2 8 -8 0 -13 14 -13 36 0 25 4 33 13 28 10 -6 10 -4 0 7 -20 20
-17 24 45 62 254 157 347 458 221 715 -40 81 -140 187 -218 232 l-60 35 -1
102 0 101 38 -10 c20 -6 67 -25 103 -43z m-2751 -1542 l0 -603 -327 0 -328 0
-45 49 c-75 82 -313 344 -333 368 l-20 22 134 148 c157 174 208 229 309 338
41 44 96 105 121 134 l45 54 75 -86 c41 -48 77 -87 81 -87 4 0 66 66 139 146
94 104 134 141 140 132 5 -7 9 -284 9 -615z m-1430 67 c-11 -7 -12 -10 -2 -10
9 0 11 -7 7 -21 -5 -16 -4 -19 6 -14 9 6 10 3 4 -11 -4 -10 -7 -32 -7 -49 1
-16 3 -148 5 -291 l2 -261 -130 -7 c-71 -3 -210 -6 -308 -6 -165 1 -177 2
-168 18 23 41 581 661 596 661 6 1 3 -4 -5 -9z m2968 -384 l-3 -281 -253 -2
-253 -3 21 28 c24 30 179 214 285 337 72 85 119 140 155 187 12 16 27 25 36
21 12 -4 14 -46 12 -287z m-166 -557 c62 -14 143 -49 177 -78 23 -21 23 -22 6
-49 -10 -15 -38 -53 -62 -84 l-43 -57 -37 24 c-68 47 -174 59 -197 22 -20 -31
6 -51 115 -87 187 -64 249 -129 249 -265 0 -65 -40 -147 -92 -188 -114 -91
-328 -86 -485 10 -26 16 -48 33 -50 39 -3 9 51 102 89 154 l17 23 39 -25 c50
-33 123 -58 170 -58 41 0 82 23 82 45 0 22 -47 52 -118 76 -189 62 -262 134
-262 258 0 58 11 91 47 143 59 87 209 128 355 97z m2047 -4 c62 -15 152 -57
171 -80 8 -9 -41 -77 -126 -174 -2 -2 -27 8 -55 23 -142 70 -298 -20 -299
-172 0 -85 42 -149 125 -188 58 -28 102 -30 173 -9 47 14 52 18 52 45 l0 30
-80 0 -80 0 0 95 0 95 195 0 195 0 0 -180 0 -179 -45 -31 c-127 -87 -285 -120
-433 -90 -224 46 -368 253 -332 477 40 246 282 398 539 338z m-6512 -158 c135
-332 243 -611 243 -627 0 -24 -43 -31 -150 -23 l-89 6 -19 46 c-11 25 -23 56
-27 69 -6 21 -10 22 -144 22 l-138 0 -27 -69 c-25 -65 -29 -69 -64 -75 -48 -8
-166 -8 -186 0 -29 11 -33 -1 171 512 l117 292 125 0 126 0 62 -153z m806 121
c163 -76 243 -210 235 -391 -6 -136 -76 -253 -193 -321 -67 -40 -145 -54 -332
-60 -146 -4 -175 -3 -188 10 -13 13 -15 69 -15 405 l0 390 218 -3 c212 -3 218
-4 275 -30z m474 20 c5 -7 52 -115 103 -240 52 -126 97 -228 101 -228 4 0 29
55 54 123 26 67 68 174 94 237 l46 115 128 3 c90 2 127 -1 127 -9 0 -6 -56
-142 -125 -303 -188 -439 -206 -480 -218 -489 -19 -13 -219 1 -229 16 -4 6
-49 109 -99 227 -50 118 -125 288 -165 377 -41 90 -74 167 -74 173 0 15 245
13 257 -2z m1331 -73 c5 -136 22 -125 -198 -125 l-190 0 0 -50 0 -50 165 0
165 0 0 -95 0 -96 -165 3 -165 3 0 -47 0 -48 173 0 c94 0 182 -3 195 -6 21 -6
22 -11 22 -99 0 -67 -4 -96 -14 -104 -10 -9 -92 -11 -297 -9 l-283 3 -13 25
c-10 19 -13 115 -13 387 0 199 3 369 6 377 6 15 39 16 308 14 l301 -3 3 -80z
m710 0 c5 -129 8 -125 -103 -125 l-95 0 0 -290 c0 -280 -1 -290 -20 -300 -25
-13 -180 -11 -197 2 -10 8 -13 80 -13 299 l0 289 -99 0 c-81 0 -100 3 -105 16
-3 9 -6 56 -6 105 l0 89 318 -2 317 -3 3 -80z m706 63 c8 -33 7 -161 -2 -175
-5 -8 -41 -13 -97 -15 l-90 -3 -3 -290 c-2 -216 -5 -291 -15 -297 -20 -13
-191 -10 -205 4 -9 9 -12 89 -12 300 l0 288 -104 0 -103 0 -6 75 c-4 41 -4 88
-1 105 l7 30 312 0 313 0 6 -22z m966 -377 l0 -399 -26 -6 c-32 -8 -178 -6
-193 3 -11 7 -29 757 -18 785 5 13 24 16 122 16 l115 0 0 -399z m445 243 c77
-85 157 -174 178 -197 l37 -42 -1 170 c0 94 0 182 0 198 l1 27 115 0 115 0 0
-399 0 -399 -22 -6 c-30 -7 -97 -8 -136 0 -23 5 -68 50 -208 213 l-179 206 -3
-199 c-1 -127 -6 -204 -13 -213 -15 -17 -190 -18 -207 -1 -9 9 -12 113 -12
405 l0 393 98 0 98 0 139 -156z m-2884 -1000 c46 -23 52 -38 24 -64 -21 -20
-28 -22 -50 -12 -39 18 -90 14 -116 -7 -31 -25 -34 -98 -5 -130 25 -27 96 -29
122 -3 17 16 16 17 -20 20 -36 3 -37 4 -34 40 l3 37 70 -4 c39 -1 73 -5 78 -8
10 -6 9 -51 -3 -95 -22 -77 -155 -115 -240 -69 -94 49 -118 177 -48 256 51 59
147 76 219 39z m1340 14 c40 -13 78 -39 79 -52 0 -6 -12 -22 -26 -38 l-27 -27
-25 19 c-66 52 -149 -13 -122 -95 17 -53 78 -70 122 -36 l25 20 33 -30 c31
-29 32 -31 14 -50 -43 -48 -162 -53 -224 -9 -34 24 -70 95 -70 136 1 72 56
141 130 162 47 14 52 14 91 0z m-1805 -143 c86 -194 84 -185 34 -185 -33 0
-42 4 -52 25 -10 23 -16 25 -85 25 -69 0 -74 -1 -83 -25 -8 -22 -16 -25 -55
-25 l-45 0 19 48 c26 65 74 177 101 235 21 47 22 48 63 45 l41 -3 62 -140z
m954 105 l0 -40 -80 0 c-78 0 -80 -1 -80 -25 0 -24 1 -24 65 -18 l65 6 0 -42
0 -41 -64 0 c-49 0 -65 -4 -70 -16 -10 -27 3 -34 69 -34 35 0 70 -3 79 -6 19
-7 22 -70 4 -76 -7 -2 -64 -2 -125 0 l-113 4 0 164 0 164 125 0 125 0 0 -40z
m315 -48 l70 -87 3 88 3 87 44 0 45 0 0 -165 c0 -91 -3 -165 -7 -166 -5 0 -20
-3 -35 -5 -23 -4 -36 7 -105 88 l-78 92 -3 -64 c-4 -105 -6 -110 -52 -110 -37
0 -40 2 -41 28 0 15 -3 89 -5 165 l-4 137 47 -1 c48 0 48 0 118 -87z m895 33
c19 -30 38 -55 42 -55 4 0 22 25 40 55 32 54 33 55 80 55 27 0 48 -2 48 -5 0
-3 -26 -47 -57 -98 -51 -81 -59 -100 -63 -157 -5 -58 -7 -65 -30 -70 -50 -12
-60 -3 -60 59 0 52 -5 65 -55 144 -86 137 -84 127 -28 127 47 0 49 -1 83 -55z"/>
<path d="M2681 7854 c-118 -32 -236 -124 -293 -230 -122 -226 -42 -529 170
-642 199 -106 429 -74 583 82 69 69 105 139 126 244 30 146 -10 289 -110 399
-127 138 -304 193 -476 147z"/>
<path d="M6841 5203 c-59 -57 -68 -82 -43 -113 27 -34 62 -20 118 46 42 49 46
58 38 82 -16 47 -56 42 -113 -15z"/>
<path d="M6558 4558 c-59 -47 14 -148 106 -148 32 0 75 18 104 44 19 17 26 18
40 8 69 -50 77 -53 126 -49 42 4 55 10 83 41 27 29 34 44 31 69 -2 27 -8 33
-31 35 -18 2 -38 -5 -58 -22 -17 -14 -34 -26 -37 -26 -4 0 -25 14 -46 30 -54
41 -108 41 -164 0 -23 -16 -45 -30 -48 -30 -4 0 -22 14 -41 30 -38 34 -43 35
-65 18z"/>
<path d="M2844 5145 c-160 -35 -286 -150 -329 -299 -27 -92 -18 -213 22 -298
79 -169 230 -257 418 -245 139 9 252 69 330 175 65 89 92 215 70 330 -18 91
-45 143 -111 212 -64 67 -127 104 -215 125 -76 18 -104 18 -185 0z m-65 -166
c-10 -6 -10 -9 -1 -9 6 0 12 -7 12 -16 0 -13 3 -14 14 -5 11 9 16 9 21 0 5 -7
25 -9 60 -4 75 9 103 -1 113 -39 17 -63 -12 -92 -82 -82 -51 8 -86 -18 -86
-65 0 -57 13 -64 102 -61 77 3 80 3 74 -17 -3 -12 -8 -30 -12 -40 -8 -31 -111
-119 -152 -131 -62 -17 -136 -13 -164 10 -42 33 -72 114 -72 200 -1 62 4 85
27 135 32 68 55 97 70 88 6 -3 7 -1 3 5 -9 14 25 37 59 39 20 1 24 -2 14 -8z"/>
<path d="M2460 2346 l0 -186 59 0 c74 0 117 15 158 53 61 57 70 160 20 235
-33 50 -85 75 -169 80 l-68 4 0 -186z"/>
<path d="M1201 6672 c-33 -61 -7 -80 139 -101 69 -11 141 -22 160 -25 59 -12
98 40 63 82 -14 17 -41 25 -123 37 -58 9 -133 19 -166 22 -55 5 -63 3 -73 -15z"/>
<path d="M8251 5977 c-64 -19 -76 -26 -84 -50 -11 -33 13 -67 46 -67 40 0 172
42 192 61 18 18 19 21 5 47 -20 36 -62 38 -159 9z"/>
<path d="M1220 5630 c-16 -30 -6 -64 23 -77 32 -15 240 -37 271 -29 30 7 43
44 27 75 -11 19 -41 29 -108 36 -208 19 -200 19 -213 -5z"/>
<path d="M8350 5638 c-91 -4 -184 -10 -207 -13 -46 -7 -67 -29 -61 -68 5 -39
40 -45 198 -36 80 4 188 8 241 8 82 1 100 4 123 22 29 23 34 60 10 83 -17 17
-6 17 -304 4z"/>
<path d="M1548 5279 c-20 -4 -108 -18 -195 -29 -171 -22 -194 -27 -205 -44
-12 -17 -9 -61 4 -74 17 -17 50 -15 273 18 205 30 225 37 225 80 0 42 -43 63
-102 49z"/>
<path d="M8351 5261 c-39 -39 -20 -87 37 -97 20 -3 84 -15 140 -26 118 -22
149 -19 158 17 14 56 -1 64 -171 95 -64 12 -122 23 -130 26 -7 3 -23 -4 -34
-15z"/>
<path d="M1420 4326 c-57 -25 -77 -40 -85 -60 -21 -60 36 -82 119 -46 100 42
130 84 90 124 -22 22 -39 20 -124 -18z"/>
<path d="M1448 3947 c-100 -54 -125 -79 -113 -116 15 -47 76 -37 190 32 60 36
70 47 73 74 2 23 -3 35 -20 47 -12 9 -25 16 -28 16 -3 -1 -49 -24 -102 -53z"/>
<path d="M8302 3745 c-24 -17 -28 -45 -12 -75 13 -24 151 -110 177 -110 29 0
57 34 49 62 -3 14 -35 43 -83 75 -97 65 -103 67 -131 48z"/>
</g>
</svg>
