<?xml version="1.0" standalone="no"?>
<!DOCTYPE svg PUBLIC "-//W3C//DTD SVG 20010904//EN"
 "http://www.w3.org/TR/2001/REC-SVG-20010904/DTD/svg10.dtd">
<svg version="1.0" xmlns="http://www.w3.org/2000/svg"
 width="512.000000pt" height="189.000000pt" viewBox="0 0 512.000000 189.000000"
 preserveAspectRatio="xMidYMid meet">

<g transform="translate(0.000000,189.000000) scale(0.100000,-0.100000)"
fill="#4E4B66" stroke="none">
<path d="M655 1799 c-369 -28 -530 -44 -553 -54 -63 -29 -62 -21 -62 -667 0
-554 1 -585 20 -625 22 -50 276 -381 316 -412 35 -28 28 -28 729 14 418 25
597 40 621 50 65 27 64 12 64 734 0 603 -1 650 -17 669 -21 24 -385 282 -434
308 -53 27 -130 25 -684 -17z m652 -80 c37 -14 234 -162 226 -169 -4 -4 -257
-22 -562 -40 -436 -25 -559 -30 -579 -20 -34 15 -192 139 -192 150 0 5 5 12
10 15 6 4 154 17 328 31 174 13 398 30 497 37 175 14 226 13 272 -4z m353
-325 c6 -15 10 -242 10 -575 l0 -550 -23 -23 c-27 -27 35 -21 -664 -62 -237
-14 -460 -24 -495 -22 -55 3 -64 6 -75 28 -17 34 -19 1096 -1 1134 14 32 6 31
368 51 162 10 387 23 500 30 113 7 242 13 288 14 80 1 83 0 92 -25z"/>
<path d="M1365 1223 c-137 -7 -175 -21 -175 -64 0 -15 7 -19 33 -19 59 0 58 5
55 -250 l-3 -234 -169 259 c-93 143 -174 265 -180 272 -8 8 -45 9 -146 2 -146
-11 -180 -23 -180 -64 0 -20 7 -25 43 -32 l42 -9 0 -343 0 -344 -34 -12 c-42
-14 -72 -51 -48 -61 8 -3 76 -1 151 3 109 8 139 13 156 28 33 29 24 43 -35 55
l-55 11 0 261 c0 144 3 258 7 255 3 -4 85 -131 182 -283 97 -153 189 -286 204
-298 36 -27 99 -27 152 -1 l40 20 3 387 2 388 28 6 c38 9 52 23 52 50 0 21 -4
24 -32 22 -18 -1 -60 -3 -93 -5z"/>
<path d="M3807 1342 c-40 -45 -6 -122 53 -122 59 0 90 67 54 118 -20 28 -83
31 -107 4z"/>
<path d="M2195 1287 c-3 -6 -4 -165 -3 -352 l3 -340 60 0 60 0 5 240 5 240
169 -235 c93 -129 174 -238 180 -242 6 -4 32 -8 59 -8 l47 0 0 355 0 355 -60
0 -60 0 -2 -242 -3 -242 -174 242 -175 242 -53 0 c-34 0 -55 -5 -58 -13z"/>
<path d="M3490 1195 l0 -65 -40 0 -40 0 0 -50 0 -50 40 0 40 0 0 -165 c0 -186
9 -224 58 -249 40 -21 103 -30 147 -22 34 7 35 8 35 51 l0 45 -39 0 c-31 0
-44 6 -60 26 -19 24 -21 40 -21 170 l0 144 60 0 60 0 0 50 0 50 -60 0 -60 0 0
65 0 65 -60 0 -60 0 0 -65z"/>
<path d="M3027 1126 c-103 -37 -150 -112 -155 -249 -5 -104 12 -159 65 -218
93 -103 294 -98 383 9 64 77 80 246 32 338 -27 52 -90 107 -141 122 -51 16
-137 14 -184 -2z m161 -106 c44 -27 65 -79 65 -160 0 -105 -48 -170 -125 -170
-80 0 -124 45 -135 139 -18 153 88 256 195 191z"/>
<path d="M4157 1126 c-100 -36 -158 -126 -160 -248 -2 -97 17 -159 65 -212 71
-81 206 -105 312 -56 111 53 164 211 120 361 -20 66 -88 138 -150 157 -53 16
-139 15 -187 -2z m159 -105 c43 -26 64 -76 64 -155 0 -118 -43 -176 -130 -176
-59 0 -92 24 -116 85 -21 56 -15 158 12 204 34 58 112 77 170 42z"/>
<path d="M4784 1126 c-17 -8 -43 -29 -57 -47 l-27 -34 0 43 0 42 -60 0 -60 0
2 -267 3 -268 57 -3 56 -3 4 185 c3 169 5 187 24 213 48 65 152 61 186 -7 15
-29 18 -64 18 -213 l0 -178 58 3 57 3 0 215 c0 210 -1 216 -24 254 -42 67
-156 97 -237 62z"/>
<path d="M3802 863 l3 -268 58 -3 57 -3 0 271 0 270 -60 0 -60 0 2 -267z"/>
</g>
</svg>
